Coordinates
version=1
nRows=7
nColumns=42
inDegrees=yes

Units are S.I. units (second, meters, Newtons, ...)
If the header above contains a line with 'inDegrees', this indicates whether rotational values are in degrees (yes) or radians (no).

endheader
time	pelvis_tilt	pelvis_list	pelvis_rotation	pelvis_tx	pelvis_ty	pelvis_tz	hip_flexion_r	hip_adduction_r	hip_rotation_r	knee_angle_r	knee_adduction_r	knee_angle_r_beta	ankle_angle_r	subtalar_angle_r	mtp_angle_r	hip_flexion_l	hip_adduction_l	hip_rotation_l	knee_angle_l	knee_adduction_l	knee_angle_l_beta	ankle_angle_l	subtalar_angle_l	mtp_angle_l	lumbar_extension	lumbar_bending	lumbar_rotation	arm_flex_r	arm_add_r	arm_rot_r	elbow_flex_r	pro_sup_r	wrist_flex_r	wrist_dev_r	arm_flex_l	arm_add_l	arm_rot_l	elbow_flex_l	pro_sup_l	wrist_flex_l	wrist_dev_l
      2.91000000	     -2.51137584	      0.59526336	     -0.39467096	      1.53720035	      0.93771767	     -0.06552166	     -8.67182796	      4.22446384	      1.05219080	      2.26377260	     -6.08182664	      0.03951029	     20.15142585	      6.62069145	     -7.50013549	     27.59275845	     -1.08692983	      6.44229935	     21.77045377	      3.77276172	      0.37996610	     -0.43498337	    -18.04769548	     -7.50013549	     -7.27024542	     -4.70232740	     -2.03461871	      5.40370453	    -10.18182844	     -1.92288580	     31.51648333	     90.00000001	      0.00000000	      0.00000000	     -9.87736092	     -9.52043353	    -22.45670890	     16.03128801	     90.00000001	      0.00000000	      0.00000000
      2.92000000	     -2.82041736	      0.10968878	     -0.39130814	      1.54721662	      0.93471792	     -0.06600979	     -9.03898675	      4.72391935	      0.83123564	      2.27572329	     -6.08955810	      0.03971886	     20.74037799	      7.00794666	     -7.50013020	     27.91616718	     -1.54817954	      6.76633276	     18.21364942	      2.97284785	      0.31788815	     -0.90732429	    -17.51950983	     -7.50013020	     -7.06813457	     -4.23180044	     -1.90399557	      5.92978641	    -10.47902946	     -1.52099842	     31.51860165	     90.00000001	      0.00000000	      0.00000000	    -10.30523371	     -9.37295284	    -22.68545245	     15.89178101	     90.00000001	      0.00000000	      0.00000000
      2.93000000	     -3.35546260	     -0.53968467	     -0.50023317	      1.55729008	      0.93125257	     -0.06630142	     -9.13466137	      5.47856963	      0.82289590	      2.34763594	     -6.26267942	      0.04097398	     21.27162163	      7.24957096	     -7.50012813	     28.69346489	     -2.28332482	      6.48456371	     15.31192980	      2.15464040	      0.26724359	     -1.04919035	    -16.29961637	     -7.50012813	     -6.57625065	     -3.58770318	     -1.62506392	      6.37331376	    -10.78234023	     -1.23915187	     31.46156041	     90.00000001	      0.00000000	      0.00000000	    -10.78089148	     -9.21200363	    -22.72165481	     15.81983484	     90.00000001	      0.00000000	      0.00000000
      2.94000000	     -3.49271541	     -1.00555890	     -0.53830726	      1.56756907	      0.92841224	     -0.06692250	     -9.69130193	      5.89318537	      0.60915371	      2.41110270	     -6.15400867	      0.04208168	     21.81953626	      7.61570966	     -7.50012332	     28.79227143	     -2.74023397	      6.19975042	     12.20479182	      1.31087899	      0.21301380	     -1.18487898	    -14.98949016	     -7.50012332	     -6.56691603	     -3.13695105	     -1.52214601	      6.87961576	    -11.04612546	     -0.82742205	     31.46669293	     90.00000001	      0.00000000	      0.00000000	    -11.10541955	     -9.06576866	    -22.98793560	     15.61971108	     90.00000001	      0.00000000	      0.00000000
      2.95000000	     -3.97880284	     -1.61584629	     -0.66161397	      1.57777894	      0.92505583	     -0.06729231	     -9.81807147	      6.59169998	      0.57039275	      2.55727227	     -6.30377538	      0.04463282	     22.29846360	      7.79013932	     -7.50012145	     29.57349908	     -3.45364615	      5.38361856	      9.95908315	      0.65472556	      0.17381879	     -1.29682538	    -13.48975792	     -7.50012145	     -6.14372051	     -2.54395691	     -1.25316347	      7.26110154	    -11.28525496	     -0.61695702	     31.37738347	     90.00000001	      0.00000000	      0.00000000	    -11.47058593	     -8.92889673	    -23.02551897	     15.54541853	     90.00000001	      0.00000000	      0.00000000
      2.96000000	     -4.32115798	     -2.14791713	     -0.82601612	      1.58815867	      0.92198132	     -0.06772139	    -10.07944312	      7.14349265	      0.56541322	      2.79415483	     -6.34562978	      0.04876720	     22.76219480	      7.92736344	     -7.50011958	     30.14755199	     -4.10716236	      4.30296079	      7.97108707	      0.12801634	      0.13912171	     -1.18417565	    -11.66442878	     -7.50011958	     -5.88107496	     -2.03420831	     -1.01497721	      7.64043329	    -11.49672331	     -0.42750297	     31.31640893	     90.00000001	      0.00000000	      0.00000000	    -11.77517257	     -8.79720726	    -23.08425048	     15.42395705	     90.00000001	      0.00000000	      0.00000000
      2.97000000	     -4.15396299	     -2.42414021	     -1.15934365	      1.59930121	      0.91960929	     -0.06837658	    -10.97266966	      7.23898409	      0.53605696	      2.99268892	     -6.19068424	      0.05223228	     23.22445884	      8.48744795	     -7.50011006	     30.63300097	     -4.62924721	      0.29261221	      7.38225579	     -0.27634589	      0.12884467	      1.57765287	     -4.74431670	     -7.50011006	     -6.14725940	     -1.78769246	     -0.65148220	      7.96385777	    -11.70326695	     -0.22384694	     31.41155702	     90.00000001	      0.00000000	      0.00000000	    -11.91433329	     -8.64675893	    -23.76274629	     15.10619279	     90.00000001	      0.00000000	      0.00000000
